<svg xmlns="http://www.w3.org/2000/svg" viewBox="0 0 1024 1024"><path d="M 751 657 750 658 750 659 745 664 745 665 735 675 735 676 723 688 722 688 712 698 711 698 705 704 704 704 700 708 699 708 695 712 694 712 691 715 690 715 688 717 687 717 684 720 683 720 681 722 680 722 678 724 677 724 676 725 675 725 673 727 672 727 671 728 670 728 668 730 667 730 666 731 665 731 664 732 663 732 661 734 660 734 659 735 658 735 657 736 656 736 655 737 654 737 653 738 652 738 651 739 650 739 649 740 648 740 647 741 646 741 645 742 644 742 643 743 641 743 640 744 639 744 638 745 637 745 636 746 634 746 633 747 632 747 631 748 630 748 629 749 627 749 626 750 625 750 624 751 622 751 621 752 619 752 618 753 616 753 615 754 614 754 613 755 611 755 610 756 608 756 607 757 605 757 604 758 601 758 600 759 598 759 597 760 595 760 594 761 591 761 590 762 588 762 587 763 584 763 583 764 580 764 579 765 577 765 576 766 572 766 571 767 568 767 567 768 564 768 563 769 559 769 549 759 549 758 542 751 542 750 534 742 534 741 525 732 525 731 517 723 517 722 512 717 511 717 511 718 503 726 503 727 497 733 497 734 491 740 491 741 485 747 485 748 480 753 480 754 473 761 473 762 466 769 461 769 460 768 457 768 456 767 453 767 452 766 449 766 448 765 445 765 444 764 442 764 441 763 438 763 437 762 435 762 434 761 431 761 430 760 428 760 427 759 424 759 423 758 421 758 420 757 418 757 417 756 415 756 414 755 412 755 411 754 409 754 408 753 406 753 405 752 404 752 403 751 401 751 400 750 398 750 397 749 396 749 395 748 394 748 393 747 391 747 390 746 389 746 388 745 386 745 385 744 384 744 383 743 382 743 381 742 380 742 379 741 378 741 377 740 375 740 374 739 373 739 372 738 371 738 370 737 369 737 368 736 367 736 365 734 364 734 363 733 362 733 361 732 360 732 359 731 358 731 357 730 356 730 354 728 353 728 352 727 351 727 349 725 348 725 347 724 346 724 344 722 343 722 341 720 340 720 338 718 337 718 335 716 334 716 331 713 330 713 327 710 326 710 322 706 321 706 317 702 316 702 310 696 309 696 281 668 281 667 273 659 274 660 274 661 276 663 276 664 278 666 278 667 280 669 280 670 281 671 281 672 283 674 283 675 285 677 285 678 288 681 288 682 290 684 290 685 292 687 292 688 295 691 295 692 299 696 299 697 303 701 303 702 309 708 309 709 334 734 335 734 341 740 342 740 346 744 347 744 351 748 352 748 355 751 356 751 359 754 360 754 362 756 363 756 366 759 367 759 369 761 370 761 372 763 373 763 375 765 376 765 378 767 379 767 380 768 381 768 383 770 384 770 385 771 386 771 388 773 389 773 390 774 391 774 392 775 393 775 395 777 396 777 397 778 398 778 399 779 400 779 401 780 402 780 403 781 404 781 405 782 406 782 407 783 408 783 409 784 410 784 411 785 412 785 413 786 414 786 415 787 416 787 417 788 418 788 419 789 421 789 422 790 423 790 424 791 425 791 426 792 428 792 429 793 430 793 431 794 432 794 433 795 435 795 436 796 437 796 438 797 439 797 440 798 442 798 443 799 445 799 446 800 447 800 448 801 450 801 451 802 452 802 453 803 455 803 456 804 458 804 459 805 461 805 462 806 463 806 464 807 467 807 468 808 470 808 471 809 472 809 472 808 481 799 481 798 489 790 489 789 496 782 496 781 502 775 502 774 509 767 509 766 512 763 517 768 517 769 526 778 526 779 533 786 533 787 539 793 539 794 546 801 546 802 552 808 552 809 556 809 557 808 558 808 559 807 561 807 562 806 564 806 565 805 567 805 568 804 569 804 570 803 572 803 573 802 574 802 575 801 577 801 578 800 579 800 580 799 582 799 583 798 584 798 585 797 587 797 588 796 589 796 590 795 591 795 592 794 594 794 595 793 596 793 597 792 598 792 599 791 601 791 602 790 603 790 604 789 605 789 606 788 607 788 608 787 609 787 610 786 611 786 612 785 613 785 614 784 616 784 618 782 619 782 620 781 621 781 622 780 623 780 624 779 625 779 626 778 627 778 628 777 629 777 630 776 631 776 633 774 634 774 635 773 636 773 637 772 638 772 640 770 641 770 643 768 644 768 645 767 646 767 648 765 649 765 651 763 652 763 654 761 655 761 657 759 658 759 661 756 662 756 664 754 665 754 668 751 669 751 673 747 674 747 679 742 680 742 687 735 688 735 715 708 715 707 720 702 720 701 724 697 724 696 728 692 728 691 731 688 731 687 734 684 734 683 736 681 736 680 739 677 739 676 741 674 741 673 742 672 742 671 744 669 744 668 746 666 746 665 747 664 747 663 749 661 749 660 750 659 750 658 Z" fill="#ff007f1a"/>
<path d="M 151 541 151 554 152 555 152 559 153 560 153 564 154 565 154 569 155 570 155 573 156 574 156 576 157 577 157 578 155 580 155 581 152 584 152 585 150 587 150 588 147 591 147 592 145 594 145 595 143 597 143 598 140 601 140 602 138 604 138 605 135 608 135 609 133 611 133 612 130 615 130 616 128 618 128 619 125 622 125 623 124 624 124 630 125 631 125 632 126 633 126 634 127 635 127 636 128 637 128 638 130 640 130 641 131 642 131 643 132 644 132 645 134 647 134 648 135 649 135 650 136 651 136 652 137 653 137 654 139 656 139 657 140 658 140 659 141 660 141 674 140 675 140 691 139 692 139 705 145 711 146 711 151 716 152 716 158 722 159 722 165 728 166 728 171 733 172 733 177 738 178 738 183 743 184 743 187 746 187 747 186 748 186 751 185 752 185 756 184 757 184 761 183 762 183 766 182 767 182 772 181 773 181 779 182 780 183 780 185 782 186 782 188 784 189 784 190 785 191 785 192 786 193 786 195 788 196 788 197 789 198 789 200 791 201 791 202 792 203 792 205 794 206 794 207 795 208 795 210 797 211 797 212 798 213 798 215 800 216 800 217 801 218 801 220 803 221 803 222 804 223 804 225 806 226 806 227 807 228 807 230 809 231 809 232 810 233 810 235 812 236 812 237 813 238 813 240 815 241 815 242 816 243 816 245 818 246 818 247 819 248 819 250 821 251 821 253 823 254 823 255 824 256 824 257 825 258 825 260 827 261 827 263 829 264 829 265 830 266 830 268 832 269 832 270 833 271 833 273 835 274 835 275 836 276 836 278 838 279 838 280 839 281 839 283 841 284 841 285 842 286 842 287 843 290 843 291 844 320 844 322 846 323 846 324 847 325 847 327 849 328 849 330 851 331 851 332 852 333 852 335 854 336 854 338 856 339 856 341 858 342 858 344 860 345 860 346 861 347 861 349 863 350 863 352 865 353 865 355 867 356 867 357 868 358 868 360 870 361 870 363 872 364 872 366 874 367 874 369 876 370 876 372 878 373 878 374 879 375 879 377 881 378 881 380 883 381 883 383 885 384 885 385 886 386 886 388 888 389 888 391 890 392 890 394 892 395 892 396 893 397 893 399 895 400 895 402 897 403 897 405 899 406 899 408 901 409 901 410 902 411 902 413 904 414 904 416 906 417 906 419 908 420 908 421 909 422 909 424 911 425 911 427 913 428 913 430 915 431 915 433 917 434 917 435 918 436 918 438 920 439 920 441 922 442 922 444 924 445 924 447 926 448 926 449 927 450 927 452 929 453 929 455 931 456 931 458 933 459 933 461 935 462 935 463 936 464 936 466 938 467 938 469 940 470 940 472 942 473 942 475 944 476 944 477 945 478 945 480 947 481 947 483 949 484 949 486 951 487 951 489 953 490 953 491 954 492 954 494 956 495 956 497 958 498 958 500 960 501 960 503 962 504 962 505 963 506 963 508 965 509 965 511 967 512 967 513 966 514 966 515 965 516 965 518 963 519 963 521 961 522 961 523 960 524 960 526 958 527 958 529 956 530 956 531 955 532 955 534 953 535 953 537 951 538 951 540 949 541 949 542 948 543 948 545 946 546 946 548 944 549 944 551 942 552 942 554 940 555 940 556 939 557 939 559 937 560 937 562 935 563 935 565 933 566 933 567 932 568 932 570 930 571 930 573 928 574 928 576 926 577 926 578 925 579 925 581 923 582 923 584 921 585 921 587 919 588 919 589 918 590 918 592 916 593 916 595 914 596 914 597 913 598 913 600 911 601 911 603 909 604 909 605 908 606 908 608 906 609 906 611 904 612 904 614 902 615 902 617 900 618 900 619 899 620 899 622 897 623 897 625 895 626 895 628 893 629 893 630 892 631 892 633 890 634 890 636 888 637 888 639 886 640 886 642 884 643 884 644 883 645 883 647 881 648 881 650 879 651 879 652 878 653 878 655 876 656 876 658 874 659 874 661 872 662 872 663 871 664 871 666 869 667 869 669 867 670 867 672 865 673 865 674 864 675 864 677 862 678 862 680 860 681 860 683 858 684 858 686 856 687 856 688 855 689 855 691 853 692 853 694 851 695 851 697 849 698 849 699 848 700 848 702 846 703 846 705 844 733 844 734 843 738 843 740 841 741 841 742 840 743 840 745 838 746 838 747 837 748 837 750 835 751 835 752 834 753 834 755 832 756 832 757 831 758 831 760 829 761 829 762 828 763 828 765 826 766 826 767 825 768 825 770 823 771 823 772 822 773 822 775 820 776 820 777 819 778 819 780 817 781 817 782 816 783 816 785 814 786 814 787 813 788 813 790 811 791 811 792 810 793 810 795 808 796 808 797 807 798 807 800 805 801 805 802 804 803 804 805 802 806 802 807 801 808 801 810 799 811 799 812 798 813 798 815 796 816 796 817 795 818 795 820 793 821 793 822 792 823 792 825 790 826 790 827 789 828 789 829 788 830 788 832 786 833 786 834 785 835 785 837 783 838 783 839 782 840 782 843 779 844 779 844 775 843 774 843 770 842 769 842 764 841 763 841 759 840 758 840 755 839 754 839 750 838 749 838 747 837 746 842 741 843 741 847 737 848 737 853 732 854 732 860 726 861 726 867 720 868 720 873 715 874 715 882 707 883 707 885 705 885 691 884 690 884 676 883 675 883 665 882 664 882 660 884 658 884 657 885 656 885 655 887 653 887 652 888 651 888 650 890 648 890 647 891 646 891 645 893 643 893 642 894 641 894 640 895 639 895 638 897 636 897 635 898 634 898 633 899 632 899 631 900 630 900 628 901 627 901 626 900 625 900 624 899 623 899 622 897 620 897 619 895 617 895 616 892 613 892 612 890 610 890 609 887 606 887 605 884 602 884 601 882 599 882 598 879 595 879 594 876 591 876 590 874 588 874 587 871 584 871 583 869 581 869 580 868 579 868 576 869 575 869 572 870 571 870 567 871 566 871 563 872 562 872 558 873 557 873 550 874 549 874 547 873 546 873 542 872 542 869 545 868 545 866 547 865 547 863 549 862 549 861 550 860 550 858 552 857 552 856 553 855 553 854 554 853 554 852 555 851 555 849 557 848 557 847 558 846 558 845 559 844 559 843 560 842 560 842 563 841 564 841 567 840 568 840 571 839 572 839 574 838 575 838 578 837 579 837 581 836 582 836 584 835 585 835 588 834 589 834 591 833 592 833 594 832 595 832 597 831 598 831 599 830 600 830 602 829 603 829 605 828 606 828 607 827 608 827 610 826 611 826 612 825 613 825 615 824 616 824 617 823 618 823 620 822 621 822 622 821 623 821 624 820 625 820 626 819 627 819 629 818 630 818 631 817 632 817 633 816 634 816 635 815 636 815 637 814 638 814 639 813 640 813 641 812 642 812 643 811 644 811 645 810 646 810 647 808 649 808 650 807 651 807 652 806 653 806 654 804 656 804 657 803 658 803 659 802 660 802 661 800 663 800 664 799 665 799 666 797 668 797 669 795 671 795 672 793 674 793 675 791 677 791 678 789 680 789 681 786 684 786 685 784 687 784 688 781 691 781 692 777 696 777 697 772 702 772 703 766 709 766 710 752 724 752 725 745 732 744 732 734 742 733 742 728 747 727 747 722 752 721 752 717 756 716 756 713 759 712 759 709 762 708 762 706 764 705 764 702 767 701 767 699 769 698 769 696 771 695 771 693 773 692 773 690 775 689 775 687 777 686 777 685 778 684 778 682 780 681 780 679 782 678 782 677 783 676 783 675 784 674 784 672 786 671 786 670 787 669 787 668 788 667 788 666 789 665 789 663 791 662 791 661 792 660 792 659 793 658 793 657 794 656 794 655 795 654 795 653 796 652 796 651 797 650 797 649 798 648 798 647 799 646 799 645 800 644 800 643 801 642 801 641 802 640 802 639 803 637 803 636 804 635 804 634 805 633 805 632 806 631 806 629 808 628 808 623 813 622 813 616 819 615 819 609 825 608 825 603 830 602 830 595 837 594 837 589 842 588 842 582 848 581 848 575 854 574 854 569 859 568 859 564 863 563 863 559 867 558 867 556 869 555 869 553 871 554 870 555 870 556 869 557 869 558 868 559 868 560 867 561 867 562 866 563 866 564 865 565 865 566 864 567 864 568 863 570 863 571 862 572 862 573 861 574 861 575 860 576 860 577 859 578 859 579 858 580 858 581 857 583 857 584 856 585 856 586 855 587 855 588 854 589 854 590 853 592 853 593 852 594 852 595 851 596 851 597 850 598 850 599 849 600 849 601 848 602 848 603 847 605 847 606 846 607 846 608 845 609 845 610 844 618 844 619 843 632 843 633 842 646 842 647 841 653 841 654 842 653 843 652 843 650 845 649 845 647 847 646 847 644 849 643 849 641 851 640 851 638 853 637 853 636 854 635 854 633 856 632 856 630 858 629 858 627 860 626 860 624 862 623 862 621 864 620 864 618 866 617 866 616 867 615 867 613 869 612 869 610 871 609 871 607 873 606 873 604 875 603 875 601 877 600 877 599 878 598 878 596 880 595 880 593 882 592 882 590 884 589 884 587 886 586 886 584 888 583 888 582 889 581 889 579 891 578 891 576 893 575 893 573 895 572 895 570 897 569 897 568 898 567 898 565 900 564 900 562 902 561 902 559 904 558 904 556 906 555 906 554 907 553 907 551 909 550 909 548 911 547 911 545 913 544 913 542 915 541 915 540 916 539 916 537 918 536 918 534 920 533 920 531 922 530 922 529 923 528 923 526 925 525 925 523 927 522 927 520 929 519 929 517 931 516 931 514 933 513 933 512 934 511 933 510 933 508 931 507 931 505 929 504 929 503 928 502 928 500 926 499 926 497 924 496 924 494 922 493 922 492 921 491 921 489 919 488 919 486 917 485 917 483 915 482 915 480 913 479 913 477 911 476 911 475 910 474 910 472 908 471 908 469 906 468 906 466 904 465 904 463 902 462 902 461 901 460 901 458 899 457 899 455 897 454 897 452 895 451 895 449 893 448 893 447 892 446 892 444 890 443 890 441 888 440 888 438 886 437 886 435 884 434 884 432 882 431 882 429 880 428 880 427 879 426 879 424 877 423 877 421 875 420 875 418 873 417 873 416 872 415 872 413 870 412 870 410 868 409 868 407 866 406 866 404 864 403 864 402 863 401 863 399 861 398 861 396 859 395 859 393 857 392 857 391 856 390 856 388 854 387 854 385 852 384 852 382 850 381 850 379 848 378 848 376 846 375 846 373 844 372 844 370 842 371 841 372 841 373 842 391 842 392 843 409 843 410 844 415 844 416 845 417 845 418 846 419 846 420 847 421 847 422 848 423 848 424 849 425 849 426 850 427 850 428 851 429 851 430 852 432 852 433 853 434 853 435 854 436 854 437 855 438 855 439 856 440 856 441 857 442 857 443 858 445 858 446 859 447 859 448 860 449 860 450 861 451 861 452 862 453 862 454 863 456 863 457 864 458 864 459 865 460 865 461 866 463 866 464 867 465 867 466 868 467 868 468 869 469 869 470 870 471 870 472 871 473 871 472 871 468 867 467 867 462 862 461 862 457 858 456 858 452 854 451 854 446 849 445 849 440 844 439 844 434 839 433 839 428 834 427 834 421 828 420 828 415 823 414 823 409 818 408 818 402 812 401 812 396 807 395 807 394 806 393 806 392 805 391 805 390 804 389 804 388 803 387 803 386 802 385 802 384 801 383 801 382 800 380 800 379 799 378 799 377 798 376 798 375 797 374 797 373 796 372 796 371 795 370 795 369 794 368 794 367 793 366 793 365 792 364 792 363 791 362 791 361 790 360 790 359 789 358 789 357 788 356 788 354 786 353 786 352 785 351 785 350 784 349 784 347 782 346 782 345 781 344 781 342 779 341 779 340 778 339 778 337 776 336 776 334 774 333 774 331 772 330 772 328 770 327 770 325 768 324 768 322 766 321 766 319 764 318 764 315 761 314 761 311 758 310 758 307 755 306 755 302 751 301 751 296 746 295 746 289 740 288 740 259 711 259 710 252 703 252 702 248 698 248 697 244 693 244 692 241 689 241 688 238 685 238 684 235 681 235 680 233 678 233 677 231 675 231 674 229 672 229 671 227 669 227 668 225 666 225 665 224 664 224 663 222 661 222 660 221 659 221 658 219 656 219 655 218 654 218 653 217 652 217 651 215 649 215 648 214 647 214 646 213 645 213 644 212 643 212 642 211 641 211 640 210 639 210 638 209 637 209 636 208 635 208 634 207 633 207 632 206 631 206 630 205 629 205 628 204 627 204 625 203 624 203 623 202 622 202 621 201 620 201 618 200 617 200 616 199 615 199 614 198 613 198 611 197 610 197 608 196 607 196 606 195 605 195 603 194 602 194 600 193 599 193 598 192 597 192 595 191 594 191 592 190 591 190 588 189 587 189 585 188 584 188 582 187 581 187 578 186 577 186 574 185 573 185 571 184 570 184 567 183 566 183 563 182 562 182 560 181 559 180 559 179 558 178 558 177 557 176 557 175 556 174 556 173 555 172 555 170 553 169 553 168 552 167 552 166 551 165 551 163 549 162 549 161 548 160 548 158 546 157 546 154 543 153 543 Z" fill="#ff007f1a"/>
<path d="M 877 294 876 295 875 295 874 296 872 296 871 297 870 297 869 298 868 298 867 299 866 299 865 300 864 300 863 301 862 301 861 302 860 302 859 303 858 303 857 304 856 304 855 305 854 305 853 306 852 306 851 307 850 307 849 308 848 308 847 309 845 309 844 310 843 310 842 311 841 311 840 312 839 312 838 313 837 313 836 314 835 314 834 315 833 315 832 316 831 316 830 317 829 317 828 318 827 318 826 319 824 319 823 320 822 320 821 321 820 321 819 322 818 322 817 323 816 323 815 324 813 324 812 325 811 325 810 326 809 326 808 327 806 327 805 328 804 328 803 329 802 329 801 330 799 330 798 331 797 331 796 332 794 332 793 333 791 333 790 334 789 334 788 335 786 335 785 336 783 336 782 337 780 337 779 338 777 338 776 339 774 339 773 340 771 340 770 341 767 341 766 342 764 342 763 343 761 343 760 344 757 344 756 345 753 345 752 346 750 346 749 347 746 347 745 348 743 348 742 349 739 349 738 350 736 350 735 351 733 351 732 352 730 352 729 353 727 353 726 354 725 354 724 355 722 355 721 356 720 356 719 357 718 357 717 358 716 358 715 359 714 359 713 360 712 360 711 361 710 361 708 363 707 363 705 365 704 365 692 377 692 378 690 380 690 381 688 383 688 384 687 385 687 386 686 387 686 389 685 390 685 391 684 392 684 394 683 395 683 398 682 399 682 401 681 402 681 405 680 406 680 408 679 409 679 411 678 412 678 413 677 414 677 416 676 417 676 418 675 419 675 420 674 421 674 422 673 423 673 424 672 425 672 426 671 427 671 428 669 430 669 431 668 432 668 433 665 436 665 437 661 441 661 443 662 444 662 445 664 447 664 448 665 449 665 450 667 452 667 453 668 454 668 455 670 457 670 458 671 459 671 460 672 461 672 462 673 463 673 464 674 465 674 466 675 467 675 468 676 469 676 470 677 471 677 473 678 474 678 475 679 476 679 478 680 479 680 481 681 482 681 484 682 485 682 487 683 488 683 490 684 491 684 494 685 495 685 498 686 499 686 504 687 505 687 511 688 512 688 533 687 534 687 539 686 540 686 544 685 545 685 548 684 549 684 551 683 552 683 554 682 555 682 556 681 557 681 559 680 560 680 561 679 562 679 563 678 564 678 565 677 566 677 567 676 568 676 569 674 571 674 572 672 574 672 575 670 577 670 578 663 585 663 587 664 588 664 589 665 590 665 591 666 592 666 593 667 594 667 595 669 597 669 598 670 599 670 600 673 603 673 604 684 615 685 615 687 617 688 617 689 618 690 618 691 619 692 619 693 620 694 620 695 621 696 621 697 622 699 622 700 623 704 623 705 624 713 624 714 625 720 625 721 624 733 624 734 623 737 623 737 622 729 614 729 613 726 610 726 609 724 607 724 606 722 604 722 603 721 602 721 601 720 600 720 599 718 597 718 596 717 595 717 593 716 592 716 591 715 590 715 589 714 588 714 586 713 585 713 583 712 582 712 580 711 579 711 577 710 576 710 573 711 572 712 573 712 574 717 579 717 580 726 589 727 589 731 593 732 593 735 596 736 596 738 598 739 598 740 599 741 599 743 601 744 601 745 602 746 602 747 603 749 603 750 604 752 604 753 605 755 605 756 606 759 606 760 607 766 607 767 608 777 608 778 607 783 607 784 606 787 606 788 605 791 605 792 604 793 604 794 603 796 603 797 602 798 602 799 601 800 601 801 600 802 600 803 599 804 599 806 597 807 597 809 595 810 595 812 593 813 593 816 590 817 590 819 588 820 588 820 587 819 587 818 586 817 586 816 585 815 585 813 583 812 583 810 581 809 581 808 580 807 580 805 578 804 578 802 576 801 576 799 574 798 574 795 571 794 571 792 569 791 569 788 566 787 566 784 563 783 563 780 560 779 560 775 556 774 556 770 552 769 552 765 548 764 548 759 543 758 543 752 537 751 537 746 532 747 531 748 531 749 532 750 532 751 533 752 533 753 534 754 534 755 535 756 535 757 536 759 536 760 537 761 537 762 538 763 538 764 539 766 539 767 540 768 540 769 541 771 541 772 542 774 542 775 543 777 543 778 544 780 544 781 545 783 545 784 546 787 546 788 547 792 547 793 548 797 548 798 549 805 549 806 550 823 550 824 549 830 549 831 548 834 548 835 547 838 547 839 546 841 546 842 545 843 545 844 544 846 544 847 543 848 543 849 542 850 542 851 541 852 541 853 540 854 540 856 538 857 538 859 536 860 536 862 534 863 534 867 530 868 530 878 520 878 519 881 516 881 515 883 513 883 512 884 511 884 509 885 508 885 506 886 505 886 502 887 501 886 501 885 500 881 500 880 499 877 499 876 498 871 498 870 497 866 497 865 496 861 496 860 495 855 495 854 494 850 494 849 493 845 493 844 492 839 492 838 491 834 491 833 490 829 490 828 489 824 489 823 488 819 488 818 487 814 487 813 486 809 486 808 485 804 485 803 484 800 484 799 483 796 483 795 482 791 482 790 481 787 481 786 480 783 480 782 479 778 479 777 478 778 477 784 477 785 478 801 478 802 479 812 479 813 478 825 478 826 477 832 477 833 476 837 476 838 475 842 475 843 474 845 474 846 473 848 473 849 472 851 472 852 471 854 471 855 470 856 470 857 469 858 469 859 468 861 468 863 466 864 466 865 465 866 465 867 464 868 464 870 462 871 462 873 460 874 460 878 456 879 456 887 448 887 447 891 443 891 442 893 440 893 439 895 437 895 436 897 434 897 433 898 432 898 431 899 430 899 429 900 428 900 427 901 426 901 424 902 423 902 421 903 420 903 418 904 417 904 415 905 414 905 411 906 410 906 406 907 405 907 398 908 397 908 389 906 389 905 390 901 390 900 391 897 391 896 392 894 392 893 393 889 393 888 394 885 394 884 395 881 395 880 396 877 396 876 397 872 397 871 398 868 398 867 399 864 399 863 400 859 400 858 401 855 401 854 402 850 402 849 403 846 403 845 404 841 404 840 405 836 405 835 406 831 406 830 407 826 407 825 408 820 408 819 409 815 409 814 410 809 410 808 411 802 411 801 412 796 412 795 413 790 413 789 412 790 411 792 411 793 410 796 410 797 409 799 409 800 408 802 408 803 407 805 407 806 406 808 406 809 405 810 405 811 404 813 404 814 403 815 403 816 402 818 402 819 401 820 401 821 400 823 400 824 399 825 399 826 398 827 398 828 397 829 397 830 396 831 396 833 394 834 394 835 393 836 393 838 391 839 391 840 390 841 390 844 387 845 387 847 385 848 385 852 381 853 381 868 366 868 365 871 362 871 361 873 359 873 358 874 357 874 356 875 355 875 354 876 353 876 352 877 351 877 350 878 349 878 348 879 347 879 345 880 344 880 341 881 340 881 337 882 336 882 332 883 331 883 311 882 310 882 306 881 305 881 301 880 300 880 298 879 297 879 295 878 294 Z" fill="#ff007f1a"/>
<path d="M 146 294 146 295 145 296 145 298 144 299 144 302 143 303 143 306 142 307 142 311 141 312 141 330 142 331 142 336 143 337 143 340 144 341 144 343 145 344 145 346 146 347 146 348 147 349 147 350 148 351 148 352 149 353 149 354 150 355 150 356 151 357 151 358 153 360 153 361 155 363 155 364 157 366 157 367 172 382 173 382 176 385 177 385 180 388 181 388 182 389 183 389 185 391 186 391 187 392 188 392 190 394 191 394 192 395 193 395 194 396 195 396 196 397 197 397 198 398 199 398 200 399 201 399 202 400 204 400 205 401 206 401 207 402 208 402 209 403 211 403 212 404 213 404 214 405 216 405 217 406 219 406 220 407 222 407 223 408 224 408 225 409 228 409 229 410 231 410 232 411 235 411 236 412 235 413 230 413 229 412 222 412 221 411 216 411 215 410 210 410 209 409 204 409 203 408 198 408 197 407 193 407 192 406 188 406 187 405 183 405 182 404 178 404 177 403 173 403 172 402 169 402 168 401 164 401 163 400 160 400 159 399 156 399 155 398 151 398 150 397 147 397 146 396 143 396 142 395 139 395 138 394 135 394 134 393 131 393 130 392 127 392 126 391 123 391 122 390 120 390 119 389 117 389 116 388 116 397 117 398 117 403 118 404 118 408 119 409 119 412 120 413 120 416 121 417 121 419 122 420 122 421 123 422 123 424 124 425 124 426 125 427 125 428 126 429 126 430 127 431 127 432 128 433 128 434 130 436 130 437 132 439 132 440 134 442 134 443 149 458 150 458 152 460 153 460 155 462 156 462 158 464 159 464 160 465 161 465 162 466 163 466 164 467 165 467 166 468 167 468 168 469 169 469 170 470 172 470 173 471 174 471 175 472 177 472 178 473 181 473 182 474 185 474 186 475 189 475 190 476 195 476 196 477 203 477 204 478 236 478 237 477 244 477 245 478 244 479 240 479 239 480 236 480 235 481 232 481 231 482 227 482 226 483 223 483 222 484 218 484 217 485 214 485 213 486 209 486 208 487 204 487 203 488 199 488 198 489 194 489 193 490 188 490 187 491 183 491 182 492 178 492 177 493 172 493 171 494 167 494 166 495 161 495 160 496 156 496 155 497 151 497 150 498 146 498 145 499 142 499 141 500 138 500 138 503 139 504 139 507 140 508 140 509 141 510 141 511 142 512 142 513 143 514 143 515 146 518 146 519 158 531 159 531 161 533 162 533 164 535 165 535 167 537 168 537 169 538 170 538 171 539 172 539 174 541 175 541 176 542 177 542 178 543 180 543 181 544 182 544 183 545 185 545 186 546 188 546 189 547 191 547 192 548 197 548 198 549 207 549 208 550 217 550 218 549 227 549 228 548 232 548 233 547 237 547 238 546 241 546 242 545 244 545 245 544 247 544 248 543 250 543 251 542 252 542 253 541 255 541 256 540 257 540 258 539 259 539 260 538 262 538 263 537 264 537 265 536 266 536 267 535 268 535 269 534 270 534 271 533 272 533 273 532 274 532 275 531 276 531 277 530 278 530 279 531 277 533 276 533 269 540 268 540 263 545 262 545 258 549 257 549 252 554 251 554 248 557 247 557 244 560 243 560 240 563 239 563 236 566 235 566 232 569 231 569 229 571 228 571 226 573 225 573 222 576 221 576 219 578 218 578 217 579 216 579 214 581 213 581 211 583 210 583 208 585 207 585 206 586 205 586 204 587 203 587 203 588 204 588 206 590 207 590 209 592 210 592 213 595 214 595 216 597 217 597 218 598 219 598 220 599 221 599 223 601 225 601 226 602 227 602 228 603 229 603 230 604 232 604 233 605 236 605 237 606 240 606 241 607 248 607 249 608 255 608 256 607 263 607 264 606 267 606 268 605 271 605 272 604 274 604 275 603 276 603 277 602 278 602 279 601 280 601 281 600 282 600 283 599 284 599 286 597 287 597 289 595 290 595 295 590 296 590 305 581 305 580 311 574 311 573 312 572 313 573 313 576 312 577 312 579 311 580 311 583 310 584 310 586 309 587 309 588 308 589 308 591 307 592 307 593 306 594 306 595 305 596 305 597 304 598 304 599 303 600 303 601 302 602 302 603 300 605 300 606 299 607 299 608 296 611 296 612 292 616 292 617 286 623 290 623 291 624 300 624 301 625 310 625 311 624 319 624 320 623 323 623 324 622 326 622 327 621 329 621 330 620 331 620 332 619 333 619 334 618 335 618 337 616 338 616 340 614 341 614 349 606 349 605 352 602 352 601 354 599 354 598 356 596 356 595 357 594 357 593 358 592 358 591 359 590 359 588 360 587 360 585 357 582 357 581 353 577 353 576 351 574 351 573 349 571 349 570 348 569 348 568 347 567 347 566 346 565 346 564 345 563 345 562 344 561 344 560 343 559 343 557 342 556 342 554 341 553 341 551 340 550 340 548 339 547 339 544 338 543 338 538 337 537 337 528 336 527 336 519 337 518 337 508 338 507 338 502 339 501 339 497 340 496 340 494 341 493 341 490 342 489 342 487 343 486 343 484 344 483 344 481 345 480 345 478 346 477 346 476 347 475 347 473 348 472 348 471 349 470 349 469 350 468 350 467 351 466 351 464 352 463 352 462 353 461 353 460 355 458 355 457 356 456 356 455 357 454 357 453 358 452 358 451 360 449 360 448 362 446 362 445 364 443 364 442 359 437 359 436 357 434 357 433 355 431 355 430 354 429 354 428 352 426 352 425 351 424 351 423 350 422 350 420 349 419 349 418 348 417 348 416 347 415 347 413 346 412 346 410 345 409 345 407 344 406 344 404 343 403 343 401 342 400 342 398 341 397 341 395 340 394 340 392 339 391 339 389 338 388 338 387 337 386 337 385 336 384 336 383 334 381 334 380 332 378 332 377 320 365 319 365 316 362 315 362 314 361 313 361 311 359 310 359 309 358 308 358 307 357 306 357 305 356 304 356 303 355 301 355 300 354 299 354 298 353 296 353 295 352 293 352 292 351 290 351 289 350 287 350 286 349 284 349 283 348 280 348 279 347 276 347 275 346 272 346 271 345 269 345 268 344 265 344 264 343 261 343 260 342 258 342 257 341 255 341 254 340 251 340 250 339 248 339 247 338 245 338 244 337 242 337 241 336 239 336 238 335 236 335 235 334 234 334 233 333 231 333 230 332 228 332 227 331 226 331 225 330 223 330 222 329 221 329 220 328 218 328 217 327 216 327 215 326 214 326 213 325 212 325 211 324 209 324 208 323 207 323 206 322 205 322 204 321 203 321 202 320 201 320 200 319 199 319 198 318 196 318 195 317 194 317 193 316 192 316 191 315 190 315 189 314 188 314 187 313 186 313 185 312 184 312 183 311 182 311 181 310 179 310 178 309 177 309 176 308 175 308 174 307 173 307 172 306 171 306 170 305 169 305 168 304 167 304 166 303 165 303 164 302 163 302 162 301 161 301 160 300 159 300 158 299 157 299 156 298 155 298 154 297 153 297 152 296 151 296 150 295 149 295 148 294 Z" fill="#ff007f1a"/>
<path d="M 509 290 500 299 500 300 495 305 495 306 490 311 490 312 483 319 483 320 478 325 478 326 472 332 472 333 466 339 466 340 461 345 461 346 456 351 456 352 450 358 450 359 445 364 445 365 439 371 439 372 434 377 434 378 430 382 430 383 425 388 425 389 421 393 421 394 417 398 417 399 412 404 412 405 408 409 408 410 405 413 405 414 401 418 401 419 398 422 398 423 395 426 395 427 392 430 392 431 390 433 390 434 387 437 387 438 385 440 385 441 383 443 383 444 381 446 381 447 379 449 379 450 377 452 377 453 376 454 376 455 374 457 374 458 373 459 373 460 372 461 372 462 370 464 370 465 369 466 369 467 368 468 368 469 367 470 367 471 366 472 366 473 365 474 365 475 364 476 364 478 363 479 363 480 362 481 362 482 361 483 361 485 360 486 360 488 359 489 359 491 358 492 358 494 357 495 357 498 356 499 356 502 355 503 355 506 354 507 354 513 353 514 353 534 354 535 354 540 355 541 355 544 356 545 356 548 357 549 357 551 358 552 358 553 359 554 359 556 360 557 360 558 361 559 361 560 362 561 362 562 364 564 364 565 365 566 365 567 368 570 368 571 381 584 382 584 385 587 386 587 387 588 388 588 390 590 391 590 392 591 393 591 394 592 395 592 396 593 397 593 398 594 399 594 400 595 402 595 403 596 405 596 406 597 408 597 409 598 411 598 412 599 416 599 417 600 424 600 425 601 436 601 437 600 444 600 445 599 449 599 450 598 452 598 453 597 455 597 456 596 458 596 459 595 460 595 461 594 462 594 463 593 464 593 465 592 466 592 467 591 468 591 470 589 471 589 474 586 475 586 487 574 487 573 489 571 489 570 490 569 491 570 491 575 490 576 490 584 489 585 489 591 488 592 488 595 487 596 487 599 486 600 486 603 485 604 485 606 484 607 484 609 483 610 483 612 482 613 482 614 481 615 481 616 480 617 480 619 479 620 479 621 478 622 478 623 477 624 477 625 476 626 476 627 474 629 474 630 472 632 472 633 471 634 471 635 469 637 469 638 465 642 465 643 458 650 458 651 456 653 455 653 448 660 447 660 445 662 444 662 442 664 441 664 440 665 439 665 437 667 436 667 434 669 434 670 433 671 433 676 434 677 434 678 437 681 438 681 439 682 585 682 586 681 587 681 590 678 590 676 591 675 591 672 590 671 590 670 589 669 589 668 588 668 585 665 584 665 581 662 580 662 575 657 574 657 561 644 561 643 556 638 556 637 554 635 554 634 552 632 552 631 550 629 550 628 549 627 549 626 547 624 547 623 546 622 546 621 545 620 545 619 544 618 544 616 543 615 543 614 542 613 542 611 541 610 541 609 540 608 540 606 539 605 539 603 538 602 538 599 537 598 537 595 536 594 536 590 535 589 535 584 534 583 534 576 533 575 533 570 534 569 535 570 535 571 537 573 537 574 542 579 542 580 546 584 547 584 552 589 553 589 554 590 555 590 557 592 558 592 559 593 560 593 561 594 562 594 563 595 564 595 565 596 567 596 568 597 570 597 571 598 574 598 575 599 578 599 579 600 587 600 588 601 598 601 599 600 607 600 608 599 612 599 613 598 616 598 617 597 619 597 620 596 622 596 623 595 625 595 626 594 627 594 628 593 629 593 630 592 631 592 632 591 633 591 634 590 635 590 637 588 638 588 639 587 640 587 643 584 644 584 648 580 649 580 653 576 653 575 658 570 658 569 660 567 660 566 662 564 662 563 663 562 663 561 665 559 665 557 666 556 666 555 667 554 667 553 668 552 668 550 669 549 669 547 670 546 670 543 671 542 671 537 672 536 672 512 671 511 671 507 670 506 670 502 669 501 669 498 668 497 668 494 667 493 667 491 666 490 666 488 665 487 665 485 664 484 664 483 663 482 663 481 662 480 662 478 661 477 661 476 660 475 660 474 659 473 659 472 658 471 658 470 657 469 657 468 656 467 656 466 655 465 655 464 654 463 654 462 652 460 652 459 651 458 651 457 649 455 649 454 647 452 647 451 645 449 645 448 643 446 643 445 641 443 641 442 639 440 639 439 636 436 636 435 634 433 634 432 631 429 631 428 629 426 629 425 625 421 625 420 622 417 622 416 618 412 618 411 615 408 615 407 611 403 611 402 606 397 606 396 602 392 602 391 597 386 597 385 592 380 592 379 587 374 587 373 581 367 581 366 576 361 576 360 571 355 571 354 565 348 565 347 559 341 559 340 554 335 554 334 549 329 549 328 543 322 543 321 538 316 538 315 532 309 532 308 526 302 526 301 519 294 519 293 518 292 517 292 515 290 Z" fill="#ff007f1a"/>
<path d="M 513 64 513 65 512 66 512 68 511 69 511 71 510 72 510 74 509 75 509 77 508 78 508 81 507 82 507 84 506 85 506 88 505 89 505 91 504 92 504 95 503 96 503 98 502 99 502 101 501 102 501 104 500 105 500 107 498 109 479 109 478 110 469 110 468 111 461 111 460 112 453 112 452 113 447 113 446 114 442 114 441 115 437 115 436 116 432 116 431 117 427 117 426 118 423 118 422 119 419 119 418 120 415 120 414 121 412 121 411 122 408 122 407 123 405 123 404 124 402 124 401 125 399 125 398 126 396 126 395 127 393 127 392 128 390 128 389 129 387 129 386 130 385 130 384 131 382 131 381 132 379 132 378 133 377 133 376 134 374 134 373 135 372 135 371 136 370 136 369 137 367 137 366 138 365 138 364 139 363 139 362 140 361 140 360 141 359 141 358 142 357 142 356 143 354 143 352 145 350 145 349 146 348 146 346 148 345 148 344 149 343 149 342 150 341 150 340 151 339 151 338 152 337 152 335 154 334 154 333 155 332 155 331 156 330 156 328 158 327 158 326 159 325 159 323 161 322 161 320 163 319 163 317 165 316 165 314 167 313 167 311 169 310 169 308 171 307 171 304 174 303 174 301 176 300 176 297 179 296 179 292 183 291 183 287 187 286 187 281 192 280 192 272 200 271 200 251 220 251 221 244 228 244 229 238 235 238 236 234 240 234 241 231 244 231 245 228 248 228 249 225 252 225 253 223 255 223 256 220 259 220 260 218 262 218 263 216 265 216 266 214 268 214 269 213 270 213 271 211 273 211 274 209 276 209 277 208 278 208 279 206 281 206 282 205 283 205 284 204 285 204 286 202 288 202 289 201 290 201 291 200 292 200 293 199 294 199 295 198 296 198 297 196 299 196 300 195 301 195 303 196 303 197 304 198 304 199 305 200 305 201 306 202 306 203 307 204 307 205 308 206 308 207 309 208 309 209 310 211 310 212 311 213 311 214 312 215 312 217 314 218 314 219 315 220 314 220 313 221 312 221 311 222 310 222 309 223 308 223 307 224 306 224 305 225 304 225 303 226 302 226 301 227 300 227 299 229 297 229 296 230 295 230 294 232 292 232 291 233 290 233 289 235 287 235 286 237 284 237 283 238 282 238 281 240 279 240 278 242 276 242 275 245 272 245 271 247 269 247 268 250 265 250 264 253 261 253 260 258 255 258 254 263 249 263 248 271 240 271 239 286 224 287 224 295 216 296 216 301 211 302 211 306 207 307 207 310 204 311 204 314 201 315 201 318 198 319 198 321 196 322 196 324 194 325 194 327 192 328 192 330 190 331 190 333 188 334 188 335 187 336 187 338 185 339 185 340 184 341 184 343 182 344 182 345 181 346 181 347 180 348 180 350 178 351 178 352 177 353 177 354 176 355 176 356 175 357 175 358 174 359 174 360 173 361 173 362 172 363 172 364 171 365 171 366 170 367 170 368 169 369 169 370 168 371 168 372 167 373 167 374 166 376 166 377 165 378 165 379 164 380 164 381 163 382 163 383 162 385 162 386 161 387 161 388 160 390 160 391 159 392 159 393 158 395 158 396 157 398 157 399 156 401 156 402 155 404 155 405 154 407 154 408 153 410 153 411 152 413 152 414 151 416 151 417 150 420 150 421 149 423 149 424 148 427 148 428 147 432 147 433 146 436 146 437 145 441 145 442 144 446 144 447 143 452 143 453 142 458 142 459 141 466 141 467 140 476 140 477 139 482 139 483 140 480 143 480 144 475 149 475 150 469 156 468 156 462 162 461 162 458 165 457 165 454 168 453 168 451 170 450 170 448 172 447 172 446 173 445 173 443 175 442 175 441 176 440 176 439 177 438 177 437 178 436 178 435 179 433 179 432 180 431 180 430 181 428 181 427 182 425 182 424 183 427 183 428 184 430 184 431 185 433 185 434 186 435 186 436 187 438 187 439 188 440 188 441 189 443 189 444 190 445 190 446 191 447 191 448 192 449 192 450 193 451 193 453 195 454 195 455 196 456 196 457 197 458 197 460 199 461 199 464 202 465 202 468 205 469 205 486 222 486 223 490 227 490 228 492 230 492 231 494 233 494 234 496 236 496 237 498 239 498 240 499 241 499 242 501 244 501 245 502 246 502 247 503 248 503 249 504 250 504 251 505 252 505 253 506 254 506 255 507 256 507 258 508 259 508 260 509 261 509 262 510 263 510 265 511 266 511 268 512 269 512 270 513 269 513 267 514 266 514 264 515 263 515 262 516 261 516 259 517 258 517 257 518 256 518 255 519 254 519 253 520 252 520 251 521 250 521 249 522 248 522 247 523 246 523 245 524 244 524 243 525 242 525 241 527 239 527 238 528 237 528 236 531 233 531 232 533 230 533 229 536 226 536 225 542 219 542 218 551 209 552 209 557 204 558 204 561 201 562 201 564 199 565 199 567 197 568 197 569 196 570 196 572 194 573 194 574 193 575 193 576 192 577 192 578 191 579 191 580 190 581 190 582 189 583 189 584 188 586 188 587 187 588 187 589 186 590 186 591 185 593 185 594 184 596 184 597 183 599 183 599 182 597 182 596 181 594 181 593 180 592 180 591 179 590 179 589 178 588 178 587 177 586 177 585 176 584 176 583 175 582 175 581 174 580 174 578 172 577 172 576 171 575 171 573 169 572 169 570 167 569 167 567 165 566 165 563 162 562 162 558 158 557 158 548 149 548 148 543 143 543 142 541 140 542 139 548 139 549 140 558 140 559 141 565 141 566 142 572 142 573 143 578 143 579 144 583 144 584 145 587 145 588 146 592 146 593 147 596 147 597 148 600 148 601 149 603 149 604 150 607 150 608 151 611 151 612 152 614 152 615 153 617 153 618 154 620 154 621 155 623 155 624 156 626 156 627 157 628 157 629 158 631 158 632 159 633 159 634 160 636 160 637 161 638 161 639 162 641 162 642 163 643 163 644 164 646 164 647 165 648 165 649 166 650 166 651 167 652 167 653 168 654 168 655 169 656 169 657 170 658 170 659 171 661 171 663 173 664 173 665 174 666 174 667 175 668 175 669 176 670 176 671 177 672 177 673 178 674 178 675 179 676 179 678 181 679 181 680 182 681 182 683 184 684 184 685 185 686 185 688 187 689 187 690 188 691 188 693 190 694 190 696 192 697 192 699 194 700 194 702 196 703 196 706 199 707 199 709 201 710 201 714 205 715 205 718 208 719 208 723 212 724 212 728 216 729 216 737 224 738 224 752 238 752 239 760 247 760 248 765 253 765 254 769 258 769 259 772 262 772 263 775 266 775 267 778 270 778 271 780 273 780 274 782 276 782 277 784 279 784 280 786 282 786 283 787 284 787 285 789 287 789 288 790 289 790 290 792 292 792 293 793 294 793 295 795 297 795 298 796 299 796 300 797 301 797 302 798 303 798 304 800 306 800 307 801 308 801 309 802 310 802 311 803 312 803 313 804 314 804 315 805 315 806 314 807 314 809 312 810 312 811 311 813 311 814 310 815 310 816 309 817 309 818 308 819 308 820 307 821 307 822 306 823 306 824 305 825 305 826 304 827 304 828 303 829 303 830 302 830 301 829 300 829 299 828 298 828 297 827 296 827 295 826 294 826 293 824 291 824 290 823 289 823 288 822 287 822 286 820 284 820 283 819 282 819 281 817 279 817 278 816 277 816 276 814 274 814 273 813 272 813 271 811 269 811 268 809 266 809 265 807 263 807 262 805 260 805 259 803 257 803 256 800 253 800 252 797 249 797 248 795 246 795 245 791 241 791 240 788 237 788 236 784 232 784 231 777 224 777 223 750 196 749 196 743 190 742 190 738 186 737 186 733 182 732 182 729 179 728 179 725 176 724 176 721 173 720 173 718 171 717 171 715 169 714 169 712 167 711 167 709 165 708 165 706 163 705 163 704 162 703 162 701 160 700 160 698 158 697 158 696 157 695 157 694 156 693 156 691 154 690 154 689 153 688 153 687 152 686 152 684 150 683 150 682 149 681 149 680 148 679 148 678 147 677 147 676 146 675 146 674 145 673 145 672 144 671 144 670 143 669 143 668 142 667 142 666 141 665 141 664 140 662 140 661 139 660 139 659 138 658 138 657 137 656 137 655 136 653 136 652 135 651 135 650 134 649 134 648 133 646 133 645 132 644 132 643 131 641 131 640 130 638 130 637 129 635 129 634 128 633 128 632 127 630 127 629 126 627 126 626 125 624 125 623 124 621 124 620 123 617 123 616 122 614 122 613 121 610 121 609 120 606 120 605 119 602 119 601 118 598 118 597 117 594 117 593 116 589 116 588 115 583 115 582 114 578 114 577 113 572 113 571 112 565 112 564 111 557 111 556 110 548 110 547 109 533 109 532 108 527 108 525 106 525 104 524 103 524 101 523 100 523 98 522 97 522 94 521 93 521 91 520 90 520 87 519 86 519 84 518 83 518 80 517 79 517 77 516 76 516 73 515 72 515 70 514 69 514 66 513 65 Z" fill="#ff007f1a"/></svg>