<?xml version="1.0" ?><!DOCTYPE svg  PUBLIC '-//W3C//DTD SVG 1.1//EN'  'http://www.w3.org/Graphics/SVG/1.1/DTD/svg11.dtd'><svg height="100%" style="fill-rule:evenodd;clip-rule:evenodd;stroke-linejoin:round;stroke-miterlimit:2;" version="1.1" viewBox="0 0 32 32" width="100%" xml:space="preserve" xmlns="http://www.w3.org/2000/svg" xmlns:serif="http://www.serif.com/" xmlns:xlink="http://www.w3.org/1999/xlink"><path d="M31.002,11l-30,0l-0,13c-0,0.796 0.316,1.559 0.878,2.121c0.563,0.563 1.326,0.879 2.122,0.879l11.005,0l-0,2.997c-0,0.552 0.448,1 1,1c0.551,-0 1,-0.448 1,-1l-0,-2.997l10.995,0c0.795,0 1.558,-0.316 2.121,-0.879c0.563,-0.562 0.879,-1.325 0.879,-2.121l-0,-13Zm-12.995,11.997l7.995,-0c0.552,-0 1,-0.448 1,-1c-0,-0.552 -0.448,-1 -1,-1l-7.995,-0c-0.552,-0 -1,0.448 -1,1c-0,0.552 0.448,1 1,1Zm-7.007,-8.997c0,-0.552 -0.448,-1 -1,-1c-2.76,-0 -4.998,2.238 -4.998,4.998c-0,2.759 2.239,4.999 4.998,4.999c2.761,-0 4.999,-2.238 4.999,-4.999c-0,-0.552 -0.448,-1 -1,-1l-2.999,0c0,0 0,-2.998 0,-2.998Zm7.007,4.998l7.995,0c0.552,0 1,-0.448 1,-1c-0,-0.551 -0.448,-1 -1,-1l-7.995,0c-0.552,0 -1,0.449 -1,1c-0,0.552 0.448,1 1,1Zm-0,-3.998l7.995,-0c0.552,0 1,-0.448 1,-1c-0,-0.552 -0.448,-1 -1,-1l-7.995,-0c-0.552,0 -1,0.448 -1,1c-0,0.552 0.448,1 1,1Zm-17.005,-6l30,0l-0,-1c-0,-0.796 -0.316,-1.559 -0.879,-2.121c-0.563,-0.563 -1.326,-0.879 -2.121,-0.879l-10.995,-0l-0,-2.003l2.993,-0c0.552,-0 1,-0.448 1,-1c-0,-0.552 -0.448,-1 -1,-1l-8,-0c-0.552,-0 -1,0.448 -1,1c-0,0.552 0.448,1 1,1l3.007,-0l-0,2.003l-11.005,0c-0.796,-0 -1.559,0.316 -2.122,0.879c-0.562,0.562 -0.878,1.325 -0.878,2.121l-0,1Z"/></svg>